<svg xmlns="http://www.w3.org/2000/svg" width="64" height="64" viewBox="0 0 64 64" fill="none">
  <defs>
    <linearGradient id="g" x1="12" y1="10" x2="56" y2="58" gradientUnits="userSpaceOnUse">
      <stop stop-color="#F59E0B" stop-opacity="0.95"/>
      <stop offset="1" stop-color="#EC4899" stop-opacity="0.9"/>
    </linearGradient>
  </defs>

  <rect x="8" y="8" width="48" height="48" rx="16" fill="url(#g)" />

  <!-- Simple "d" mark -->
  <path
    d="M24 20C24 17.7909 25.7909 16 28 16H34.5C43.6127 16 50.5 22.902 50.5 32C50.5 41.098 43.6127 48 34.5 48H28C25.7909 48 24 46.2091 24 44V20Z"
    fill="rgba(255,255,255,0.92)"
  />
  <path
    d="M31 22H34.4C41.4 22 45 26.4 45 32C45 37.6 41.4 42 34.4 42H31V22Z"
    fill="#0B0B10"
    opacity="0.85"
  />

  <path
    d="M30 24H34.4C40.4 24 42.7 27.6 42.7 32C42.7 36.4 40.4 40 34.4 40H30V24Z"
    fill="url(#g)"
    opacity="0.35"
  />
</svg>

